<svg width="32" height="32" viewBox="0 0 32 32" fill="none" xmlns="http://www.w3.org/2000/svg">
<path d="M2.49505 24.0565C2.86383 27.3463 5.53797 29.9587 8.84476 30.118C11.1304 30.2279 13.4652 30.2851 15.9992 30.2851C18.5333 30.2851 20.8681 30.2279 23.1537 30.118C26.4605 29.9587 29.1345 27.3463 29.5035 24.0565C29.7517 21.8408 29.9556 19.5693 29.9556 17.2554C29.9556 14.9414 29.7517 12.67 29.5035 10.4544C29.1345 7.16435 26.4605 4.55212 23.1537 4.39288C20.8681 4.2828 18.5333 4.22559 15.9992 4.22559C13.4652 4.22559 11.1304 4.2828 8.84476 4.39288C5.53797 4.55212 2.86383 7.16435 2.49505 10.4544C2.24671 12.67 2.04297 14.9414 2.04297 17.2554C2.04297 19.5693 2.24672 21.8408 2.49505 24.0565Z" stroke="#0064F2" stroke-width="1.73288"/>
<path d="M9.40234 1.71289V5.66998" stroke="#0064F2" stroke-width="1.73288" stroke-linecap="round"/>
<path d="M22.5938 1.71289V5.66998" stroke="#0064F2" stroke-width="1.73288" stroke-linecap="round"/>
<path d="M15.998 1.71289V5.66998" stroke="#0064F2" stroke-width="1.73288" stroke-linecap="round"/>
<path d="M10.5521 15.8279C12.009 15.8279 13.1902 14.6468 13.1902 13.1898C13.1902 11.7328 12.009 10.5518 10.5521 10.5518C9.09509 10.5518 7.91406 11.7328 7.91406 13.1898C7.91406 14.6468 9.09509 15.8279 10.5521 15.8279Z" stroke="#0064F2" stroke-width="1.73116" stroke-linecap="round" stroke-linejoin="round"/>
<path d="M21.1049 15.8279C22.5617 15.8279 23.7429 14.6468 23.7429 13.1898C23.7429 11.7328 22.5617 10.5518 21.1049 10.5518C19.6478 10.5518 18.4668 11.7328 18.4668 13.1898C18.4668 14.6468 19.6478 15.8279 21.1049 15.8279Z" stroke="#0064F2" stroke-width="1.73116" stroke-linecap="round" stroke-linejoin="round"/>
<path d="M10.5521 25.0613C12.009 25.0613 13.1902 23.8802 13.1902 22.4232C13.1902 20.9662 12.009 19.7852 10.5521 19.7852C9.09509 19.7852 7.91406 20.9662 7.91406 22.4232C7.91406 23.8802 9.09509 25.0613 10.5521 25.0613Z" stroke="#0064F2" stroke-width="1.73116" stroke-linecap="round" stroke-linejoin="round"/>
<path d="M21.1049 25.0613C22.5617 25.0613 23.7429 23.8802 23.7429 22.4232C23.7429 20.9662 22.5617 19.7852 21.1049 19.7852C19.6478 19.7852 18.4668 20.9662 18.4668 22.4232C18.4668 23.8802 19.6478 25.0613 21.1049 25.0613Z" stroke="#0064F2" stroke-width="1.73116" stroke-linecap="round" stroke-linejoin="round"/>
</svg>
