<svg width="32" height="32" viewBox="0 0 32 32" fill="none" xmlns="http://www.w3.org/2000/svg">
    <path d="M8.14307 8.11523V10.4009" stroke="#0064F2" stroke-width="1.73288" stroke-linecap="round" stroke-linejoin="round"/>
    <path d="M21.8574 8.11523V10.4009" stroke="#0064F2" stroke-width="1.73288" stroke-linecap="round" stroke-linejoin="round"/>
    <path d="M14.9999 11.5449V14.4021C14.9999 15.6644 13.9765 16.6878 12.7141 16.6878H11.5713" stroke="#0064F2" stroke-width="1.73288" stroke-linecap="round" stroke-linejoin="round"/>
    <path d="M11.0825 22.5469C12.1397 23.551 13.5421 24.111 15.0002 24.111C16.4583 24.111 17.8608 23.551 18.9179 22.5469" stroke="#0064F2" stroke-width="1.73288" stroke-linecap="round" stroke-linejoin="round"/>
    <path d="M21.8882 1.125C22.736 1.21631 23.576 1.31418 24.4075 1.41057C26.6006 1.66477 28.3506 3.41354 28.597 5.60758C28.6898 6.43396 28.7833 7.26854 28.8704 8.11066" stroke="#0064F2" stroke-width="1.73288" stroke-linecap="round"/>
    <path d="M21.8882 28.8157C22.736 28.7245 23.576 28.6266 24.4075 28.5302C26.6006 28.276 28.3506 26.5272 28.597 24.3332C28.6898 23.5069 28.7833 22.6721 28.8704 21.8301" stroke="#0064F2" stroke-width="1.73288" stroke-linecap="round"/>
    <path d="M8.1427 1.125C7.29504 1.21631 6.45502 1.31418 5.62329 1.41057C3.43017 1.66477 1.68023 3.41354 1.43392 5.60758C1.34114 6.43396 1.2476 7.26854 1.16064 8.11066" stroke="#0064F2" stroke-width="1.73288" stroke-linecap="round"/>
    <path d="M8.1427 28.8157C7.29504 28.7245 6.45502 28.6266 5.62329 28.5302C3.43017 28.276 1.68023 26.5272 1.43392 24.3332C1.34114 23.5069 1.2476 22.6721 1.16064 21.8301" stroke="#0064F2" stroke-width="1.73288" stroke-linecap="round"/>
</svg>