<svg width="18" height="18" viewBox="0 0 18 18" fill="none" xmlns="http://www.w3.org/2000/svg">
    <g clip-path="url(#clip0_929_5091)">
        <path d="M13.545 17.2425H14.79C15.42 17.2425 15.9375 16.7625 16.0125 16.1475L17.25 3.7875H13.5V0.75H12.0225V3.7875H8.295L8.52 5.5425C9.8025 5.895 11.0025 6.5325 11.7225 7.2375C12.8025 8.3025 13.545 9.405 13.545 11.205V17.2425ZM0.75 16.4925V15.75H12.0225V16.4925C12.0225 16.905 11.685 17.2425 11.265 17.2425H1.5075C1.0875 17.2425 0.75 16.905 0.75 16.4925ZM12.0225 11.2425C12.0225 5.2425 0.75 5.2425 0.75 11.2425H12.0225ZM0.765 12.75H12.015V14.25H0.765V12.75Z"
              fill="#0064F2"/>
    </g>
    <defs>
        <clipPath id="clip0_929_5091">
            <rect width="18" height="18" fill="white"/>
        </clipPath>
    </defs>
</svg>