<svg width="18" height="18" viewBox="0 0 18 18" fill="none" xmlns="http://www.w3.org/2000/svg">
    <g clip-path="url(#clip0_929_5095)">
        <path d="M15.75 9.165C15.75 5.0475 12.555 2.25 9 2.25C5.4825 2.25 2.25 4.9875 2.25 9.21C1.8 9.465 1.5 9.945 1.5 10.5V12C1.5 12.825 2.175 13.5 3 13.5H3.75V8.925C3.75 6.0225 6.0975 3.675 9 3.675C11.9025 3.675 14.25 6.0225 14.25 8.925V14.25H8.25V15.75H14.25C15.075 15.75 15.75 15.075 15.75 14.25V13.335C16.1925 13.1025 16.5 12.645 16.5 12.105V10.38C16.5 9.855 16.1925 9.3975 15.75 9.165Z"
              fill="#0064F2"/>
        <path d="M6.75 10.5C7.16421 10.5 7.5 10.1642 7.5 9.75C7.5 9.33579 7.16421 9 6.75 9C6.33579 9 6 9.33579 6 9.75C6 10.1642 6.33579 10.5 6.75 10.5Z"
              fill="#0064F2"/>
        <path d="M11.25 10.5C11.6642 10.5 12 10.1642 12 9.75C12 9.33579 11.6642 9 11.25 9C10.8358 9 10.5 9.33579 10.5 9.75C10.5 10.1642 10.8358 10.5 11.25 10.5Z"
              fill="#0064F2"/>
        <path d="M13.5001 8.2725C13.1401 6.135 11.2801 4.5 9.0376 4.5C6.7651 4.5 4.3201 6.3825 4.5151 9.3375C6.3676 8.58 7.7626 6.93 8.1601 4.92C9.1426 6.8925 11.1601 8.25 13.5001 8.2725Z"
              fill="#0064F2"/>
    </g>
    <defs>
        <clipPath id="clip0_929_5095">
            <rect width="18" height="18" fill="white"/>
        </clipPath>
    </defs>
</svg>