<svg id="Layer_1" data-name="Layer 1" xmlns="http://www.w3.org/2000/svg" viewBox="0 0 100 100"><defs><style>.cls-1{fill:#4d4d4d;}</style></defs><title>07</title><path class="cls-1" d="M99.4,36.34c-1.92-5.23-7.95-4.23-12.6-4.39-7-.24-14.14.49-21.16.11-1.68-5.92-3.1-11.91-4.7-17.85C59.56,9.14,57.14,3.39,51.26,2.45c-4.79-.77-7.5,2.2-9.09,6.33-3,7.76-4.71,15.81-8,23.47-7.86,0-15.84-.15-23.67.29-3.64.2-8.41.51-9.93,4.4C-1.2,41.36,1.6,44.8,4.87,47.28c2.73,2.07,5.63,3.91,8.4,5.91,3.17,2.27,7.62,4.65,10,7.62S22,69.91,20.85,73.18a94.15,94.15,0,0,0-3.62,10.68c-.95,4.11-1.29,10.36,2.85,13S29.76,94.46,33,92.18c5.89-4.21,11.33-9,17.42-12.9a150.23,150.23,0,0,0,17.2,14.46c3.57,2.54,8.81,5.6,13.12,2.76,4-2.61,3.77-7.91,2.48-11.9-2.38-7.35-4.76-14.66-7.07-22.05,6-4.35,12-8.87,17.91-13.43C98.12,45.94,101.39,41.76,99.4,36.34ZM85.93,51.08c-4.17,3.16-8.26,6.42-12.52,9.47a1.66,1.66,0,0,0-.74,1.82c1.53,4.94,2.64,10,4.27,14.9,1.3,3.91,5.14,9.72,3.52,13.89C76.53,101.22,55.69,80,51.7,76.1a1.64,1.64,0,0,0-2-.25,123.93,123.93,0,0,0-11.06,7.92c-3.85,3-8.54,7.77-13.24,9.46a4.12,4.12,0,0,1-5.24-1.64c-.61-.91-.41-3-.35-4.11a28.61,28.61,0,0,1,1.92-7.39C23.88,74,26.14,68,28.33,62a1.56,1.56,0,0,0-.41-1.57c-3.59-2.92-7.23-5.77-11-8.5C13.39,49.28,5.58,45.76,4.08,41.52c-2.59-7.31,9.42-5.78,13.62-5.83,5.78-.07,11.56-.23,17.35-.23a1.28,1.28,0,0,0,1.52-.8,126.3,126.3,0,0,0,5.22-13.55c1.42-4.42,3-16.83,9.5-15.14,6.22,1.61,6.91,10.91,8.34,16.12,1.09,4,2.07,8,3.22,11.93a1.66,1.66,0,0,0,1.55,1.18c4.05.3,8.1,0,12.16-.11,4.68-.08,10.89-.95,15.42.33C104.49,39,89.12,48.66,85.93,51.08Z"/><path class="cls-1" d="M29,40.43a27.92,27.92,0,0,0-7.21,5.1c-1.12,1.09.59,2.8,1.71,1.71a25.87,25.87,0,0,1,6.72-4.73C31.66,41.83,30.43,39.75,29,40.43Z"/><path class="cls-1" d="M37.54,42a54.67,54.67,0,0,0-10.43,5.54c-1.28.87-.07,3,1.22,2.09a51.83,51.83,0,0,1,9.85-5.29C39.6,43.79,39,41.45,37.54,42Z"/></svg>