<?xml version="1.0" encoding="utf-8"?><svg xmlns="http://www.w3.org/2000/svg" xmlns:xlink="http://www.w3.org/1999/xlink"><symbol fill="none" viewBox="0 0 32 32" id="calendar" xmlns="http://www.w3.org/2000/svg"><path d="M2.495 24.056c.369 3.29 3.043 5.903 6.35 6.062 2.285.11 4.62.167 7.154.167s4.87-.057 7.155-.167c3.306-.16 5.98-2.772 6.35-6.061.248-2.216.452-4.488.452-6.802 0-2.314-.204-4.585-.453-6.8-.369-3.29-3.043-5.903-6.35-6.062-2.285-.11-4.62-.167-7.154-.167s-4.869.057-7.154.167c-3.307.16-5.981 2.771-6.35 6.061-.248 2.216-.452 4.487-.452 6.801s.204 4.586.452 6.802z" stroke="#0064F2" stroke-width="1.733"/><path d="M9.402 1.713V5.67M22.594 1.713V5.67M15.998 1.713V5.67" stroke="#0064F2" stroke-width="1.733" stroke-linecap="round"/><path d="M10.552 15.828a2.638 2.638 0 100-5.276 2.638 2.638 0 000 5.276zM21.105 15.828a2.638 2.638 0 100-5.276 2.638 2.638 0 000 5.276zM10.552 25.061a2.638 2.638 0 100-5.276 2.638 2.638 0 000 5.276zM21.105 25.061a2.638 2.638 0 100-5.276 2.638 2.638 0 000 5.276z" stroke="#0064F2" stroke-width="1.731" stroke-linecap="round" stroke-linejoin="round"/></symbol><symbol fill="none" viewBox="0 0 32 32" id="clock" xmlns="http://www.w3.org/2000/svg"><path d="M16 29.983c6.534 0 11.831-5.297 11.831-11.832C27.831 11.617 22.534 6.32 16 6.32c-6.535 0-11.832 5.297-11.832 11.831 0 6.535 5.297 11.832 11.832 11.832z" fill="#fff" stroke="#0064F2" stroke-width="1.731" stroke-linecap="round" stroke-linejoin="round"/><path d="M2.017 6.32a18.694 18.694 0 015.378-4.303M29.983 6.32a18.694 18.694 0 00-5.378-4.303M16 11.698v6.453h5.378" stroke="#0064F2" stroke-width="1.731" stroke-linecap="round" stroke-linejoin="round"/></symbol><symbol fill="none" viewBox="0 0 32 32" id="face" xmlns="http://www.w3.org/2000/svg"><path d="M8.143 8.115v2.286M21.857 8.115v2.286M15 11.545v2.857a2.286 2.286 0 01-2.286 2.286h-1.143M11.082 22.547a5.689 5.689 0 007.836 0" stroke="#0064F2" stroke-width="1.733" stroke-linecap="round" stroke-linejoin="round"/><path d="M21.888 1.125c.848.091 1.688.19 2.52.286a4.78 4.78 0 014.189 4.197c.093.826.186 1.66.273 2.503M21.888 28.816c.848-.091 1.688-.19 2.52-.286a4.78 4.78 0 004.189-4.197c.093-.826.186-1.66.273-2.503M8.143 1.125c-.848.091-1.688.19-2.52.286a4.78 4.78 0 00-4.19 4.197c-.092.826-.185 1.66-.272 2.503M8.143 28.816c-.848-.091-1.688-.19-2.52-.286a4.78 4.78 0 01-4.19-4.197c-.092-.826-.185-1.66-.272-2.503" stroke="#0064F2" stroke-width="1.733" stroke-linecap="round"/></symbol><symbol fill="none" viewBox="0 0 18 18" id="food-court" xmlns="http://www.w3.org/2000/svg"><g clip-path="url(#dclip0_929_5091)"><path d="M13.545 17.242h1.245c.63 0 1.148-.48 1.223-1.095l1.237-12.36H13.5V.75h-1.477v3.038H8.295l.225 1.755c1.283.352 2.482.99 3.203 1.694 1.08 1.066 1.822 2.168 1.822 3.968v6.037zM.75 16.492v-.742h11.273v.742c0 .413-.338.75-.758.75H1.507a.754.754 0 01-.757-.75zm11.273-5.25c0-6-11.273-6-11.273 0h11.273zM.765 12.75h11.25v1.5H.765v-1.5z" fill="#0064F2"/></g><defs><clipPath id="dclip0_929_5091"><path fill="#fff" d="M0 0h18v18H0z"/></clipPath></defs></symbol><symbol fill="none" viewBox="0 0 18 18" id="guide" xmlns="http://www.w3.org/2000/svg"><g clip-path="url(#eclip0_929_5095)" fill="#0064F2"><path d="M15.75 9.165c0-4.117-3.195-6.915-6.75-6.915-3.518 0-6.75 2.737-6.75 6.96-.45.255-.75.735-.75 1.29V12c0 .825.675 1.5 1.5 1.5h.75V8.925A5.246 5.246 0 019 3.675a5.246 5.246 0 015.25 5.25v5.325h-6v1.5h6c.825 0 1.5-.675 1.5-1.5v-.915c.442-.233.75-.69.75-1.23V10.38c0-.525-.308-.982-.75-1.215z"/><path d="M6.75 10.5a.75.75 0 100-1.5.75.75 0 000 1.5zM11.25 10.5a.75.75 0 100-1.5.75.75 0 000 1.5z"/><path d="M13.5 8.273A4.53 4.53 0 009.038 4.5c-2.273 0-4.718 1.883-4.523 4.838A6.056 6.056 0 008.16 4.92c.983 1.973 3 3.33 5.34 3.353z"/></g><defs><clipPath id="eclip0_929_5095"><path fill="#fff" d="M0 0h18v18H0z"/></clipPath></defs></symbol><symbol fill="none" viewBox="0 0 32 32" id="leaf" xmlns="http://www.w3.org/2000/svg"><path d="M30.094 3.568a23.323 23.323 0 00-5.098 0l-4.551 7.35-2.801-5.29C7.494 10.683.963 18.25 8.297 25.697c7.335 7.448 23.957-2.82 21.797-22.13z" fill="#fff" stroke="#0064F2" stroke-width="1.731" stroke-linecap="round" stroke-linejoin="round"/><path d="M1.714 28.327c5.696-2.404 13.09-7.656 15.371-11.25" stroke="#0064F2" stroke-width="1.731" stroke-linecap="round" stroke-linejoin="round"/></symbol></svg>